<?xml version="1.0" standalone="no"?>
<!DOCTYPE svg PUBLIC "-//W3C//DTD SVG 20010904//EN"
 "http://www.w3.org/TR/2001/REC-SVG-20010904/DTD/svg10.dtd">
<svg version="1.0" xmlns="http://www.w3.org/2000/svg"
 width="580.000000pt" height="386.000000pt" viewBox="0 0 580.000000 386.000000"
 preserveAspectRatio="xMidYMid meet">

<g transform="translate(0.000000,386.000000) scale(0.100000,-0.100000)"
fill="#FFFF" stroke="none">
<path d="M2690 3321 l-115 -6 -17 -35 c-43 -88 -1177 -2734 -1174 -2738 2 -2
202 113 444 255 l439 258 313 663 c172 364 316 662 320 662 4 0 148 -298 320
-662 l313 -663 440 -258 c242 -142 441 -256 443 -254 5 5 -1176 2750 -1190
2764 -13 14 -365 23 -536 14z"/>
</g>
</svg>
